<svg width="32" height="32" viewBox="0 0 32 32" fill="none" xmlns="http://www.w3.org/2000/svg">
<path d="M14.4036 26.3369L14.4029 26.3363C10.9597 23.214 8.14194 20.6549 6.17912 18.2536C4.22181 15.8589 3.16699 13.6823 3.16699 11.3333C3.16699 7.49007 6.16921 4.5 10.0003 4.5C12.1692 4.5 14.2591 5.51223 15.6209 7.09897L16.0003 7.54105L16.3797 7.09897C17.7416 5.51223 19.8315 4.5 22.0003 4.5C25.8314 4.5 28.8337 7.49007 28.8337 11.3333C28.8337 13.6823 27.7788 15.8589 25.8215 18.2536C23.8587 20.6549 21.041 23.214 17.5978 26.3363L17.5971 26.3369L16.0003 27.7905L14.4036 26.3369Z" fill="white" stroke="black"/>
</svg>
